<?xml version="1.0" standalone="no"?>
<!DOCTYPE svg PUBLIC "-//W3C//DTD SVG 20010904//EN"
 "http://www.w3.org/TR/2001/REC-SVG-20010904/DTD/svg10.dtd">
<svg version="1.0" xmlns="http://www.w3.org/2000/svg"
 width="500.000000pt" height="500.000000pt" viewBox="0 0 500.000000 500.000000"
 preserveAspectRatio="xMidYMid meet">
<metadata>
Created by potrace 1.11, written by Peter Selinger 2001-2013
</metadata>
<g transform="translate(0.000000,500.000000) scale(0.100000,-0.100000)"
fill="#000000" stroke="none">
<path d="M2329 4976 c-2 -2 -38 -6 -79 -10 -222 -19 -500 -89 -718 -182 -296
-127 -542 -294 -778 -529 -265 -263 -444 -537 -573 -877 -62 -165 -80 -228
-116 -419 -35 -184 -35 -186 -39 -409 -4 -223 5 -337 39 -522 21 -115 78 -317
109 -393 7 -16 28 -66 46 -110 62 -147 167 -335 264 -470 28 -38 53 -72 56
-75 3 -3 31 -37 63 -77 81 -100 275 -284 393 -374 277 -209 570 -350 899 -434
88 -22 119 -28 199 -41 21 -3 48 -8 60 -10 91 -19 466 -26 596 -11 331 38 583
111 865 253 247 125 430 258 636 463 289 289 482 603 610 994 34 104 82 308
94 397 27 200 27 548 1 710 -22 137 -29 170 -71 330 -10 41 -48 159 -60 185
-7 17 -20 48 -28 70 -21 55 -100 218 -138 285 -18 30 -37 64 -43 75 -26 47
-122 183 -183 258 -234 290 -527 522 -863 683 -126 61 -161 75 -285 116 -260
86 -455 118 -741 124 -116 2 -213 2 -215 0z"/>
</g>
</svg>
